<svg xmlns="http://www.w3.org/2000/svg" width="64" height="64" viewBox="0 0 64 64" shape-rendering="crispEdges">
  <rect width="64" height="64" fill="none"/>
  <g fill="#9ee3d9">
    <rect x="22" y="4" width="12" height="32"/><rect x="34" y="28" width="8" height="8"/>
    <rect x="42" y="32" width="8" height="8"/><rect x="50" y="36" width="8" height="16"/>
    <rect x="10" y="30" width="12" height="10"/><rect x="18" y="40" width="40" height="8"/>
    <rect x="22" y="48" width="34" height="8"/><rect x="28" y="56" width="22" height="6"/>
  </g>
  <g fill="#4faaa2">
    <rect x="18" y="4" width="4" height="34"/><rect x="22" y="0" width="12" height="4"/>
    <rect x="34" y="4" width="4" height="28"/><rect x="38" y="28" width="8" height="4"/>
    <rect x="46" y="32" width="8" height="4"/><rect x="58" y="38" width="4" height="16"/>
    <rect x="54" y="54" width="4" height="4"/><rect x="50" y="58" width="4" height="4"/>
    <rect x="28" y="62" width="22" height="4"/><rect x="22" y="58" width="6" height="4"/>
    <rect x="14" y="40" width="8" height="4"/><rect x="6" y="30" width="4" height="10"/>
    <rect x="10" y="26" width="12" height="4"/>
  </g>
  <g fill="#fffdf8">
    <rect x="22" y="8" width="10" height="30"/><rect x="32" y="32" width="8" height="8"/>
    <rect x="40" y="36" width="8" height="8"/><rect x="48" y="40" width="6" height="12"/>
    <rect x="12" y="30" width="10" height="8"/><rect x="22" y="40" width="34" height="8"/>
    <rect x="26" y="48" width="28" height="8"/>
  </g>
</svg>
